<svg xmlns="http://www.w3.org/2000/svg" xmlns:xlink="http://www.w3.org/1999/xlink" version="1.1" x="0px" y="0px" viewBox="0 0 90 112.5" enable-background="new 0 0 90 90" xml:space="preserve"><path d="M67.967,40.697C63.199,38.462,58,37.88,52.788,37.563c0.251-3.997,0.43-7.979,0.091-11.994  c1.826-5.156-6.015-9.31-9.086-4.078c-2.624,4.469-3.335,9.858-3.666,15.129c-5.693-0.602-11.339-1.122-17.013,0.573  c-4.798,1.434-4.268,7.6-0.874,9.387c0.805,0.875,1.981,1.448,3.537,1.434c4.583-0.043,9.024,1.019,13.498,1.911  c-0.48,5.847-0.819,11.719,0.681,17.418c1.29,4.901,8.229,4.646,9.643,0c1.597-5.248,2.172-10.696,2.475-16.156  c4.925-0.051,9.864-0.602,14.699-1.352C70.975,49.184,71.718,42.455,67.967,40.697z"/><text x="0" y="105" fill="#000000" font-size="5px" font-weight="bold" font-family="'Helvetica Neue', Helvetica, Arial-Unicode, Arial, Sans-serif">Created by Alex</text><text x="0" y="110" fill="#000000" font-size="5px" font-weight="bold" font-family="'Helvetica Neue', Helvetica, Arial-Unicode, Arial, Sans-serif">from the Noun Project</text></svg>