<svg xmlns="http://www.w3.org/2000/svg" xmlns:xlink="http://www.w3.org/1999/xlink" version="1.1" x="0px" y="0px" viewBox="0 0 100 125" style="enable-background:new 0 0 100 100;" xml:space="preserve"><path d="M66.9,16c-0.1,0-0.2,0-0.3,0h-0.7h-1.4C63.8,9.8,57.6,5,50,5c-7.6,0-13.8,4.8-14.5,11h-1.4c-7.7,0-14.1,6.3-14.1,14.1v3.9  v30.9v19.6v4.2c0,3.5,2.9,6.4,6.4,6.4h47.2c3.5,0,6.4-2.9,6.4-6.4v-4.2V64.8V33.9V30C79.9,22.6,74.2,16.5,66.9,16z M50,52.1  c-3,0-5.9-0.3-8.7-0.9c0-3.3,0-6.6,0.1-9.7h0.8c0.7,0,1.3-0.6,1.3-1.3v-3c0-0.7-0.6-1.3-1.3-1.3h-0.6c0.3-8.6,0.8-15.3,1-17.7h15.7  c0.2,2.4,0.7,9,1,17.7h-0.6c-0.7,0-1.3,0.6-1.3,1.3v3c0,0.7,0.6,1.3,1.3,1.3h0.8c0.1,3,0.1,6.2,0.1,9.5C56.4,51.7,53.3,52.1,50,52.1  z M59.3,53.2c0,1.7-0.1,3.4-0.1,5.2H41.5c-0.1-1.7-0.1-3.4-0.1-5c2.7,0.6,5.6,0.9,8.6,0.9C53.3,54.3,56.4,53.9,59.3,53.2z M40,70.7  c0.1,1.4,0.2,2.8,0.4,4.2l-2.3,2.5l-3-2.7c-0.1-1.3-0.3-2.7-0.4-4H40z M61.4,58.4c0.1-1.9,0.1-3.8,0.1-5.7l0-2.3c0-3.1,0-6.1-0.1-9  h5.2c0,2.2,0.1,4.5,0.1,6.9l0,2.4c0,2.5-0.1,5.1-0.1,7.7l-0.1,2.2c-0.1,1.5-0.1,3-0.2,4.5h-5.2c0.1-1.5,0.2-3,0.2-4.5L61.4,58.4z   M65.9,70.7c-0.1,1.4-0.2,2.7-0.4,4l-3,2.7l-2.3-2.5c0.1-1.4,0.3-2.8,0.4-4.2H65.9z M66.6,35.8h-5.2c-0.3-8.5-0.8-15.1-1-17.7h5.2  C65.8,20.6,66.3,27.2,66.6,35.8z M50,11.7c3.2,0,5.9,1.8,6.6,4.3H43.4C44.1,13.5,46.8,11.7,50,11.7z M35.1,18.2h5.2  c-0.2,2.6-0.7,9.2-1,17.7h-5.2C34.4,27.2,34.9,20.6,35.1,18.2z M33.9,48.7c0-2.5,0-4.9,0.1-7.2h5.2c-0.1,2.9-0.1,6-0.1,9.2l0,2.3  c0,1.8,0.1,3.7,0.1,5.5l0.1,2.2c0.1,1.5,0.1,3,0.2,4.5h-5.2c-0.1-1.5-0.2-3-0.2-4.5l-0.1-2.2c-0.1-2.5-0.1-4.9-0.1-7.3L33.9,48.7z   M22.3,30c0-6.1,4.7-11.2,10.7-11.8c-0.2,2.6-0.7,9.2-1,17.6h-0.4c-0.7,0-1.3,0.6-1.3,1.3v3c0,0.7,0.6,1.3,1.3,1.3h0.2  c0,2-0.1,4-0.1,6.1c-5.8-3.3-9.5-8.2-9.5-13.7V30z M22.3,41.5c2,3.4,5.3,6.3,9.5,8.5c0,2.7,0.1,5.6,0.2,8.4h-5.5  c-1.6,0-3.1,0.6-4.2,1.6V41.5z M77.7,84.4v4.2c0,2.3-1.9,4.2-4.2,4.2H26.4c-2.3,0-4.2-1.9-4.2-4.2v-4.2V64.8c0-2.3,1.9-4.2,4.2-4.2  H32c0.1,1.5,0.1,3,0.2,4.5h-0.6c-0.7,0-1.3,0.6-1.3,1.3v3c0,0.7,0.6,1.3,1.3,1.3h1c0.1,1.6,0.3,3.1,0.4,4.7c0,0.3,0.2,0.5,0.3,0.7  l4.1,3.8c0.2,0.2,0.5,0.3,0.7,0.3c0,0,0,0,0.1,0c0.3,0,0.6-0.1,0.8-0.4l3.3-3.8c0.2-0.2,0.3-0.5,0.3-0.8c-0.2-1.5-0.3-3-0.4-4.5  c0.7,0,1.3-0.6,1.3-1.3v-3c0-0.7-0.6-1.3-1.3-1.3h-0.4c-0.1-1.5-0.1-3-0.2-4.5h17.6c-0.1,1.5-0.1,3-0.2,4.5h-0.4  c-0.7,0-1.3,0.6-1.3,1.3v3c0,0.7,0.6,1.3,1.3,1.3c-0.1,1.5-0.3,3-0.4,4.5c0,0.3,0.1,0.6,0.3,0.8l3.3,3.8c0.2,0.2,0.5,0.4,0.8,0.4  c0,0,0,0,0.1,0c0.3,0,0.5-0.1,0.7-0.3l4.1-3.8c0.2-0.2,0.3-0.4,0.3-0.7c0.2-1.5,0.3-3.1,0.4-4.7h1c0.7,0,1.3-0.6,1.3-1.3v-3  c0-0.7-0.6-1.3-1.3-1.3h-0.6c0.1-1.5,0.2-3,0.2-4.5h4.8c2.3,0,4.2,1.9,4.2,4.2V84.4z M77.7,60c-1.1-1-2.6-1.6-4.2-1.6h-4.8  c0.1-3,0.1-5.9,0.2-8.8c3.8-2.1,6.9-4.9,8.8-8.1V60z M77.7,33.9c0,5.2-3.4,9.9-8.8,13.2c0-1.9,0-3.8-0.1-5.7h0.2  c0.7,0,1.3-0.6,1.3-1.3v-3c0-0.7-0.6-1.3-1.3-1.3h-0.4c-0.3-8.3-0.7-14.8-1-17.5c5.6,0.9,9.9,5.8,9.9,11.7V33.9z"/><text x="0" y="115" fill="#000000" font-size="5px" font-weight="bold" font-family="'Helvetica Neue', Helvetica, Arial-Unicode, Arial, Sans-serif">Created by Beau Wingfield</text><text x="0" y="120" fill="#000000" font-size="5px" font-weight="bold" font-family="'Helvetica Neue', Helvetica, Arial-Unicode, Arial, Sans-serif">from the Noun Project</text></svg>