<svg xmlns="http://www.w3.org/2000/svg" xmlns:xlink="http://www.w3.org/1999/xlink" version="1.1" x="0px" y="0px" viewBox="0 0 100 125" enable-background="new 0 0 100 100" xml:space="preserve"><path d="M73.916,50.818c-3.406-4.445-8.02-7.389-13.174-9.229c0.712-0.428,1.395-0.873,2.013-1.342  c7.72-5.867,3.047-16.37-5.083-19.263c-9.035-3.217-22.966,1.962-29.229,8.148c-2.077,2.051,0.052,4.894,2.362,4.814  c-0.083,3.253,1.396,6.271,3.97,8.428c-12.555,7.654-16.737,21.235-13.949,35.56c0.214,1.11,1.689,2.188,2.921,2.057  c9.011-0.973,18.069-1.395,27.11-2.014c0.31,0.182,0.683,0.315,1.142,0.377c8.424,1.121,16.194-1.106,24.584-1.438  c1.231-0.048,2.709-0.809,2.921-2.055C80.936,66.396,79.331,57.882,73.916,50.818z M59.878,34.856  c-1.576,2.554-4.983,3.916-8.471,4.579c-2.72-0.332-5.476-0.442-8.203-0.388c-0.509-0.145-1.103-0.129-1.77,0.117  c-0.111,0.039-0.208,0.089-0.315,0.129c-0.057,0.021-0.117,0.037-0.17,0.061c-1.249-0.408-2.382-1.046-3.144-1.988  c-3.592-4.445,1.229-7.098,5.027-8.159c1.375-0.384,2.022-1.362,2.111-2.39c1.533-0.384,3.073-0.665,4.564-0.851  C54.826,25.314,63.749,28.593,59.878,34.856z M41.135,45.365c3.342,0.725,7.051,0.555,10.6-0.232  c6.271,0.938,12.004,3.297,16.555,8.062c4.607,4.832,6.202,11.938,5.591,18.304c-2.649,0.247-5.292,0.655-7.933,1.015  c-0.42-0.793-1.273-1.34-2.574-1.199c-12.325,1.328-24.739,1.631-37.076,2.824C24.721,62.236,29.004,50.762,41.135,45.365z"/><text x="0" y="115" fill="#000000" font-size="5px" font-weight="bold" font-family="'Helvetica Neue', Helvetica, Arial-Unicode, Arial, Sans-serif">Created by Alice Mortaro</text><text x="0" y="120" fill="#000000" font-size="5px" font-weight="bold" font-family="'Helvetica Neue', Helvetica, Arial-Unicode, Arial, Sans-serif">from the Noun Project</text></svg>